<?xml version="1.0" encoding="utf-8"?>
<!-- Generator: Adobe Illustrator 19.1.0, SVG Export Plug-In . SVG Version: 6.00 Build 0)  -->
<svg version="1.1" id="Layer_1" xmlns="http://www.w3.org/2000/svg" xmlns:xlink="http://www.w3.org/1999/xlink" x="0px" y="0px"
	 viewBox="0 0 1719.6 500" style="enable-background:new 0 0 1719.6 500;fill:#1b5e20;" xml:space="preserve">
<style type="text/css">
	.st0{fill-rule:evenodd;clip-rule:evenodd;}
</style>
<g>
	<path class="st0" d="M1458.6,500V316.6h0.5v-2.4h-0.5v-3.3h0.5v-2.4h-0.5v-3.3h0.5v-2.4h-0.5v-3.3h0.5V297h-0.5v-4.1h0.5v-2.4h-0.5
		v-10.5h1.7v-2.8h2.3v2.8h3.3v-4h12.4v-5l10.3-2.3l7,2.3v1.2l8-1.2v-7.7h1.5v7.5l1.3-0.2v3h7.4v9.1h6v1.3h9.8v1.5h7v6.3h9v26.7h11
		v-13.5h25.1v-6.5h6.3V286h2.3v12.4h3.5v6.5h3v15.5h18.7v85.3h42.1v40.1h62.2V500H1458.6z M891.6,1.8c1.2-0.6,2.5-1.2,3.8-1.8
		c2.8,1.5,9.5,7.3,9.5,7.3v3h-13.3V1.8L891.6,1.8z M1458.6,279.9h-1.6v14h-2.3v2.6h2.3v3.1h-2.3v2.6h2.3v3.1h-2.3v2.6h2.3v3.1h-2.3
		v2.6h2.3v3.1h-2.3v1.4h-1.3V304h-5v-1.9l-4.9-5.9h-0.4v-4.8h-5.6V135.1l-2.2-1.1l0.1,0c2.5,0.1,4.6-2.1,5-5.5
		c0.4-3.4-7.1-7.5-10.3-7.3c-3.1,0.3-3.6,2.6-3.6,2.6l2.5-0.4l0.1,1.5l-10,1l-2.9-1.5l0-3.6l-20.2-12.3l-25.6,1.5l-3.1,2
		c-10.9,0.3-14.9,6.8-14.9,6.8l4.7-0.3l-3.3,2.1l-12.1-0.3l-8.9,6c-1.8,0.8-3.2,1.7-4.1,2.7l0,0l0,0c-0.6,0.7-0.9,1.5-0.9,2.3
		c0,1.4,1,2.8,2.9,3.9l-4.8,3.1c-1.8-11.4-10.3-20.4-21.2-22.5v-4.6c0-1.4-1.2-2.6-2.6-2.6h-1V98.2h-1.8v10.5h-1
		c-1.4,0-2.6,1.2-2.6,2.6v4.5c-11.5,1.9-20.5,11.7-21.9,23.8l-16.7,3.9v4.6l-11.4,0.5l-16.7,9.5v135.1h-7.6v7h-7v58.2h-9.5V98.2
		l-7-2.7l4.2-1.1l2.9,0.9v-1.9l-19.3-7.3l-9.5-1l-9.4-4.5v-7.8l-16.6-6.7c-3.6-4.6-10-7.6-17.2-7.6c-1.8,0-3.6,0.2-5.3,0.5v-8.6
		h-2.8V60c-3.3,1.1-6.2,2.9-8.3,5.2h-0.8l-8,7v9.9l-18.5,6.4v14.8h-4.5v8.5h-8.3v15.1l-2.9,1.9l-0.3,5.4l3.1-2.1v4.7l-6.3,5.6
		l2.9,2.1l3.4-0.2v3.7h-7.6v147.6h-8.4v3.5h-4.3v1.5h-4.8v6.5l-12.8,3.6v16.8h-8.8v-20.1h-2.8v20.1h-7.8v-17.8h1.8V307h-1.8v-0.8
		h-14.5v-5.5h1v-5.3h-1V292h-2.3v14.3h-11.5v-5.8h-12.3v-29.6h-8.3v-10.8h-33.1L923,251v-0.1h1.6v-2.4H923v-14.9h1.6v-2.4H923v-14.9
		h1.6v-2.4H923V199h1.6v-2.4H923v-14.9h1.6v-2.4H923v-14.9h1.6V162H923v-14.9h1.6v-2.4H923V38.5h-0.8V11.8h-16.5v-1.5h-0.8h-13.3
		V500h567V316.6h-0.5v-2.4h0.5v-3.3h-0.5v-2.4h0.5v-3.3h-0.5v-2.4h0.5v-3.3h-0.5V297h0.5v-4.1h-0.5v-2.4h0.5V279.9z M878.3,10.3
		c3.2-2.4,7.7-5.6,13.3-8.5v8.5H878.3L878.3,10.3z M891.6,10.3h-13.3h-0.2V8h-11.5v6h-6v7.5H856v17h-0.6c-6,0.2-6.1,17.9,0.6,18.6
		v8.3c-5.9,1.2-6.4,7.3-6.2,11.6v247.6l-5.4,0.9v10h-6.6v-14.7h-14v-12H818v-3.3h-12.9v3.3H803l-4.8,2.6v9.4h-1.9v-6.3h-3v-18.9
		h-6.6v-7.4h-15.2v-17.5l-15.4-1.7v-3.3c0-3.2-2.6-5.3-5.8-5.8l-22.9-3.5v-2h2.5v-6.3l-20.6-1.5v-3.2h-5v-8.8h-6.8v-41.7l-5.2-6.5
		l-52.7,9.9l-6,4.5v117.8h-2.6v7.4h-4.4v-42.5l-49.9,13.4v-1.6h1.3V292h-1.3v-1.9h1.3v-3.3h-1.3v-1.9h1.3v-3.3h-1.3v-1.9h1.3v-3.3
		h-1.3v-1.9h1.3v-3.3h-1.3v-1.9h1.3v-3.3h-1.3v-1.9h1.3v-3.3h-1.3v-1.9h1.3V256h-1.3v-1.9h1.3v-3.3h-1.3V249h1.3v-3.3h-1.3v-1.9h1.3
		v-3.3h-1.3v-1.9h1.3v-3.3h-1.3v-1.9h1.3v-3.3h-1.3v-1.9h1.3v-3.3h-1.3v-1.9h1.3V220h-1.3v-10.4c0.2-12.1-89.3-8.2-89.5-1.1V220
		h-1.8v3.3h1.8v1.9h-1.8v3.3h1.8v1.9h-1.8v3.3h1.8v1.9h-1.8v3.3h1.8v1.9h-1.8v3.3h1.8v1.9h-1.8v3.3h1.8v1.9h-1.8v3.3h1.8v1.9h-1.8
		v3.3h1.8v1.9h-1.8v3.3h1.8v1.9h-1.8v3.3h1.8v1.9h-1.8v3.3h1.8v1.9h-1.8v3.3h1.8v1.9h-1.8v3.3h1.8v1.9h-1.8v3.3h1.8v1.9h-1.8v3.3
		h1.8v1.9h-1.8v3.3h1.8v1.9h-1.8v3.3h1.8v1.9h-1.8v3.3h1.8v1.9h-1.8v3.3h1.8v1.9h-1.8v3.3h1.8v1.9h-1.8v3.3h1.8v1.9h-1.8v3.3h1.8
		v1.9h-1.8v3.3h1.8v1.9h-1.8v3.3h1.8v1.9h-1.8v3.3h1.8v1.9h-1.8v3.3h1.8v1.9h-1.8v0.3h-15v-81.2h-6.3v-8.8h-0.9v-1.5H462v-3.3h-1.3
		v4.8h-33.1v-24.2l-4.1-5.4h-1.4v-12h2.3c0.8,0,1.5-0.7,1.5-1.5v-73.5c0-4.6,0.5-5.2-4.2-5.7c-6.1-0.6-12.1-0.9-18.1-1.1v-0.7h0.7
		c0.5,0,0.9-0.4,0.9-0.9l0,0c0-0.5-0.4-0.9-0.9-0.9h-0.7v-5.8h0.7c0.5,0,0.9-0.4,0.9-0.9l0,0c0-0.5-0.4-0.9-0.9-0.9h-0.7v-5.8h0.7
		c0.5,0,0.9-0.4,0.9-0.9l0,0c0-0.5-0.4-0.9-0.9-0.9h-0.7v-5.8h0.7c0.5,0,0.9-0.4,0.9-0.9l0,0c0-0.5-0.4-0.9-0.9-0.9h-0.7V77.3
		c0-0.9-0.7-1.6-1.6-1.6l0,0c-0.9,0-1.6,0.7-1.6,1.6v37.6h-0.1v1.9h0.1v5.8h-0.1v1.9h0.1v1.7l-0.1,0.1v2.8l0.1-0.1v0.2l-0.1,0v3.2
		l0.1-0.1v5.7h-0.1v1.9h0.1v0.6l-0.1,0V500h491.3V10.3z M400.3,114.9v1.9h-0.7c-0.5,0-0.9-0.4-0.9-0.9l0,0c0-0.5,0.4-0.9,0.9-0.9
		H400.3L400.3,114.9z M400.3,122.6v1.9h-0.7c-0.5,0-0.9-0.4-0.9-0.9l0,0c0-0.5,0.4-0.9,0.9-0.9H400.3L400.3,122.6z M400.3,126.3v2.8
		l-0.1,0.1l0.1,0v3.2l-4,6.6v-4.9l0.8-1.6l-0.8,0.9v-3.1L400.3,126.3L400.3,126.3z M400.3,137.9h-0.7c-0.5,0-0.9,0.4-0.9,0.9l0,0
		c0,0.5,0.4,0.9,0.9,0.9h0.7V137.9L400.3,137.9z M400.3,140.4V500h-4V140.3C397.6,140.4,399,140.4,400.3,140.4z M396.3,130.3v3.1
		l-2.8,3v-3.4L396.3,130.3L396.3,130.3z M396.3,134.1l-2.8,5.2V500h2.8V140.3h-0.8l0.8-1.4V134.1z M393.6,133.1v3.4l-3.6,3.9
		c1,0,2,0,3,0l0.6-1.1V500h-18.3V146.7c3.1,0,5.8,0.1,5.8,0.1s1-0.1,3.1-2.8c-3.7,0-6.6,0.2-9,0.4V141c3.7-0.2,7.4-0.4,11.1-0.5
		L393.6,133.1z M375.3,141v3.4c-8.1,0.8-9,2.6-9,2.6c0.1-0.3,4.9-0.3,9-0.3V500H0v-52.2h64.3v-31.1h12v-44.6h12.5v-3.9h10.8v-6.3
		h1.5V360h-1v-3.9h9.9v-1.4h12v1.4h2.1v3.9h-0.8v1.9h6.5v6.3h0.8v3.9h1.3v24.7h1.3v-1.1h-0.1v-3.1h8.5v3.1h-1.3v1.1h11.1V272.7
		c0-1.9,1.6-3.1,3.4-3.4c1.2-0.2,2.5-0.5,3.7-0.7v-2.6c0-2.4,1.9-4.3,4.3-4.7v-6.8l4.3-0.4v-5.6c0-1,0.8-1.6,1.8-1.8l26.1-4.8
		c0.9-0.2,1.8,0.8,1.8,1.8v7.3l4.8-0.5v8c2.4,0.1,4.3,2.3,4.3,4.8v2.2c0.6,0.1,1.3,0.3,1.9,0.4c1.8,0.4,3.4,1.5,3.4,3.4V317h5v-5.8
		h6.5v-7.4h1.8l3.6,4.3h5.4v-4.3h2.3l5.5,4.5v2.9h4.6v5.8h7.8v16h0.5v1h-0.5v1.3h0.5v1h-0.5v1.3h0.5v1h-0.5v1.3h0.5v1h-0.5v1.3h0.5
		v1h-0.5v1.3h0.5v1h-0.5v1.3h0.5v1h-0.5v1.3h0.5v1h-0.5v1.3h0.5v1h-0.5v1.3h0.5v1h-0.5v1.3h0.5v1h-0.5v1.3h0.5v0.1h1.1v1.9h-1.6v0.3
		h0.5v1h-0.5v1.3h0.5v1h-0.5v1.3h0.5v0.3h1.1v1.9h-1.6v0.1h0.5v1h-0.5v1.3h0.5v1h-0.5v1.3h0.5v1h-0.5v1.3h0.5v1h-0.5v1.3h0.5v1h-0.5
		v1.3h0.5v1h-0.5v1.3h0.5v1h-0.5v1.3h0.5v1h-0.5v1.3h0.5v1h-0.5v1.3h0.5v1h-0.5v1.3h0.5v1h-0.5v0.5h2.5v-1.9h1.8V387h4.5v-12.2h5.4
		v-9.1h10.7V349h4.9v-2.9h2.4v1.5h4.1v-8.5h2.9l7.8,8.3v1.6h4.6v2.3h1.9v3.3h12v-76.2h4.8v-5.3h38.3v-41.7h-1.6v-2.3l-4.4-3.3v-3.1
		l6.8,0v-0.2h-2.4V220l-4.4-3.3v-3.1l6.8,0v-0.2h-2.4v-2.3l-4.4-3.3v-3.1l6.8,0v-0.2h-2.4v-2.3l-4.4-3.3v-3.1l6.8,0v-0.2h-2.4v-2.3
		l-4.4-3.3v-3.1l6.8,0v-0.2h-2.4v-2.3l-4.4-3.3V178l6.8,0v-0.2h-2.4v-2.3l-4.4-3.3v-3.1l6.8,0v-5.7v-17.8c0-3.8,0.6-3.7,4.3-4
		C370,141.4,372.6,141.2,375.3,141z"/>
</g>
</svg>
